<?xml version="1.0" standalone="no"?>
<!DOCTYPE svg PUBLIC "-//W3C//DTD SVG 20010904//EN"
 "http://www.w3.org/TR/2001/REC-SVG-20010904/DTD/svg10.dtd">
<svg version="1.0" xmlns="http://www.w3.org/2000/svg"
 width="3000.000000pt" height="2000.000000pt" viewBox="0 0 3000.000000 2000.000000"
 preserveAspectRatio="xMidYMid meet">
<metadata>
Created by potrace 1.16, written by Peter Selinger 2001-2019
</metadata>
<g transform="translate(0.000000,2000.000000) scale(0.100000,-0.100000)"
fill="#000000" stroke="none">
<path d="M15215 16120 c-581 -47 -1105 -397 -1380 -923 l-52 -97 -19 21 c-34
39 -136 99 -202 119 -146 45 -326 44 -457 -4 -222 -80 -417 -295 -499 -551
-78 -239 -84 -557 -15 -767 40 -125 95 -247 255 -574 215 -441 300 -640 352
-825 l27 -95 0 225 c0 314 27 476 110 646 36 76 56 103 129 172 129 124 160
195 245 558 64 274 62 265 73 265 5 0 43 -7 85 -16 92 -19 198 -67 281 -129
l62 -45 32 29 c138 119 352 252 485 300 81 30 206 53 232 43 14 -5 12 -108 -4
-342 -23 -334 -7 -502 62 -648 32 -67 105 -144 153 -160 l34 -12 -31 32 c-39
42 -68 99 -82 166 -12 58 -14 175 -5 235 l7 37 52 -49 c112 -106 195 -128 515
-141 131 -5 259 -15 290 -23 136 -33 241 -119 281 -227 l23 -65 9 45 c13 60
-6 177 -37 239 -33 65 -99 129 -171 168 l-60 32 35 2 c70 2 96 -3 158 -31 113
-52 199 -167 237 -315 9 -34 20 -150 26 -270 15 -292 29 -382 76 -475 52 -103
147 -197 248 -245 41 -19 80 -35 87 -35 7 0 24 -6 38 -13 32 -16 168 -15 240
2 121 29 240 106 314 205 59 78 82 133 116 267 38 154 53 191 96 251 64 87
180 114 255 59 17 -13 32 -21 34 -19 2 2 7 53 11 113 9 150 -6 238 -56 341
-94 193 -271 267 -452 190 -14 -6 -12 2 8 53 36 88 47 163 41 271 -10 182 -76
329 -202 455 -69 69 -99 90 -215 150 -170 89 -236 137 -285 210 -49 75 -67
123 -99 270 -53 239 -78 303 -162 421 -136 193 -434 372 -751 454 -176 45
-399 64 -578 50z"/>
<path d="M14315 13440 c-206 -29 -368 -110 -507 -252 -38 -38 -68 -73 -68 -78
0 -5 38 9 84 30 90 42 248 93 336 109 123 22 151 22 286 0 152 -24 195 -19
240 26 20 20 24 34 24 83 l0 59 -58 12 c-79 15 -264 22 -337 11z"/>
<path d="M15455 13444 c-16 -2 -60 -9 -97 -15 l-68 -11 0 -59 c0 -50 4 -64 24
-84 45 -45 88 -50 240 -26 135 22 163 22 286 0 88 -16 246 -67 336 -109 46
-21 84 -35 84 -30 0 5 -30 40 -67 78 -162 165 -352 247 -598 256 -60 2 -123 3
-140 0z"/>
<path d="M20275 13404 c-335 -45 -651 -162 -937 -346 l-111 -72 32 -13 c17 -8
42 -14 54 -16 12 -1 24 -5 28 -9 3 -4 42 19 87 52 45 33 84 60 86 60 3 0 31
17 63 37 98 62 316 162 455 208 151 49 286 80 438 99 l105 14 -100 0 c-55 0
-145 -6 -200 -14z"/>
<path d="M13917 12970 c-95 -24 -199 -100 -260 -190 -16 -25 -31 -46 -32 -48
-1 -1 -19 5 -40 13 -20 9 -39 14 -42 11 -6 -6 59 -107 84 -129 20 -17 21 -16
62 47 56 85 117 141 199 179 59 28 77 32 152 32 58 -1 103 -7 140 -20 l55 -19
-71 -7 c-114 -11 -191 -61 -245 -161 -30 -56 -33 -71 -34 -143 0 -80 17 -137
58 -190 15 -19 16 -18 61 23 47 43 73 51 94 30 18 -18 15 -32 -23 -88 l-34
-51 37 -17 c59 -26 185 -23 246 7 124 61 195 193 176 328 -9 61 10 41 65 -69
25 -50 45 -86 45 -80 0 41 -98 287 -120 302 -4 3 -10 15 -14 28 -4 12 -12 19
-18 16 -7 -5 -8 -2 -3 6 5 7 -2 20 -17 34 -13 11 -17 17 -8 11 13 -9 13 -8 1
8 -7 9 -21 16 -30 15 -9 -2 -16 4 -16 14 0 9 -4 20 -9 25 -5 4 -6 3 -2 -4 12
-21 -10 -15 -61 17 -78 48 -158 71 -263 75 -52 3 -112 0 -133 -5z m466 -288
c22 -19 22 -70 0 -94 -22 -24 -77 -24 -103 2 -35 35 -24 85 23 105 33 14 52
11 80 -13z"/>
<path d="M15833 12961 c-74 -20 -118 -40 -165 -73 -26 -18 -33 -17 -28 7 1 6
-4 4 -12 -3 -7 -7 -13 -20 -13 -30 0 -10 -7 -16 -16 -14 -9 1 -23 -6 -30 -15
-12 -16 -12 -17 1 -8 9 6 8 3 -2 -7 -10 -9 -18 -21 -18 -26 0 -5 -7 -12 -15
-16 -8 -3 -15 -15 -15 -26 0 -11 -4 -20 -9 -20 -17 0 -121 -258 -121 -302 0
-6 20 30 45 80 55 110 74 130 65 69 -19 -135 52 -267 176 -328 61 -30 187 -33
246 -7 l37 17 -34 51 c-38 56 -41 70 -23 88 21 21 47 13 94 -30 45 -41 46 -42
61 -23 41 53 58 110 58 190 -1 72 -4 87 -34 143 -54 100 -131 150 -245 161
l-71 7 55 19 c37 13 82 19 140 20 75 0 93 -4 152 -32 82 -38 143 -94 199 -179
41 -63 42 -64 62 -47 24 22 90 123 84 129 -2 2 -21 -3 -42 -11 -20 -9 -38 -15
-39 -13 -2 2 -17 23 -33 48 -46 68 -116 128 -190 162 -87 41 -211 48 -320 19z
m-103 -291 c37 -68 -54 -136 -112 -83 -36 32 -17 100 32 115 22 7 69 -12 80
-32z"/>
<path d="M14995 12401 c12 -129 90 -318 190 -462 51 -73 50 -77 -30 -161 -31
-32 -41 -46 -26 -38 35 18 104 84 135 129 l28 39 -46 56 c-93 115 -158 232
-218 396 l-39 105 6 -64z"/>
<path d="M16860 12289 c0 -5 -4 -7 -10 -4 -6 4 -7 -1 -3 -11 5 -13 3 -15 -7
-9 -9 5 -11 4 -6 -3 4 -7 3 -12 -2 -12 -5 0 -21 -36 -36 -80 -40 -121 -33
-227 17 -268 11 -10 17 -9 25 1 13 16 21 268 8 259 -6 -3 -6 3 -2 14 5 10 10
35 11 54 2 19 6 43 10 53 4 9 4 17 1 17 -3 0 -6 -5 -6 -11z"/>
<path d="M13152 12257 c-7 -8 -10 -22 -6 -31 4 -10 1 -16 -7 -16 -8 0 -4 -8 9
-20 24 -23 29 -35 10 -27 -10 3 -12 -24 -10 -123 3 -146 14 -171 51 -124 12
15 19 34 16 41 -2 8 0 11 5 8 21 -13 11 125 -16 203 -34 101 -37 107 -52 89z"/>
<path d="M14346 11417 c11 -14 22 -23 27 -20 4 2 7 -2 7 -10 0 -8 25 -41 55
-72 36 -38 55 -52 55 -41 0 9 4 15 10 11 5 -3 7 -13 4 -23 -5 -14 -4 -15 5 -2
6 8 11 10 11 4 0 -7 8 -15 17 -18 14 -6 12 -2 -5 17 -12 13 -22 26 -22 30 0 3
32 -5 71 -18 211 -72 469 -82 776 -30 48 8 99 18 113 21 l25 6 -24 -26 c-20
-21 -22 -29 -12 -39 10 -9 11 -8 5 7 -6 16 -4 18 10 13 10 -4 15 -3 11 3 -3 6
0 10 8 10 19 0 79 71 73 86 -3 8 0 11 7 8 7 -2 24 7 37 21 25 26 14 33 -23 13
-12 -6 -29 -13 -37 -14 -61 -9 -190 -39 -216 -50 -53 -23 -203 -44 -311 -44
-116 0 -263 26 -378 66 -38 13 -111 37 -162 54 -50 16 -106 36 -124 45 l-31
17 18 -25z"/>
<path d="M8550 9710 c-31 -7 -29 -8 20 -9 452 -11 891 -223 1199 -578 l53 -62
82 6 c148 11 148 1 -5 155 -74 74 -168 160 -209 190 -218 158 -490 266 -754
298 -93 11 -327 11 -386 0z"/>
<path d="M13957 9373 c-12 -22 -59 -179 -81 -273 -92 -389 -92 -964 0 -1830
123 -1164 392 -2241 795 -3193 33 -76 59 -153 59 -172 0 -18 -7 -91 -15 -162
-54 -470 -375 -3661 -375 -3728 0 -13 83 -15 650 -15 l650 0 0 21 c0 38 -278
2797 -339 3362 l-59 548 40 92 c307 707 557 1562 703 2409 123 713 194 1522
182 2053 -6 255 -21 403 -58 580 -20 92 -76 285 -83 285 -2 0 -34 -46 -71
-102 -246 -370 -533 -737 -724 -929 -121 -121 -204 -179 -257 -179 -101 0
-272 157 -504 465 -101 134 -320 463 -425 640 -89 150 -82 139 -88 128z"/>
<path d="M13446 9325 c-230 -59 -499 -425 -630 -859 -91 -299 -180 -801 -211
-1182 l-7 -81 62 -6 c103 -11 98 -13 104 46 3 28 8 97 11 152 31 542 145 1057
307 1380 96 190 223 349 347 432 84 57 141 104 136 113 -8 14 -74 16 -119 5z"/>
<path d="M16420 9301 c19 -16 67 -47 105 -67 97 -50 150 -91 236 -181 227
-238 387 -633 428 -1057 6 -60 11 -227 11 -371 l0 -262 -61 -6 c-188 -17 -387
-209 -528 -508 -52 -112 -121 -289 -121 -313 0 -11 18 -16 68 -21 37 -4 72 -8
77 -9 6 -2 26 40 46 93 114 303 251 501 396 572 67 33 178 34 244 1 161 -79
254 -308 304 -744 l6 -56 52 -7 c29 -3 65 -9 81 -12 l29 -5 -7 96 c-16 229
-68 452 -143 606 -60 125 -163 231 -266 275 l-67 29 7 36 c13 65 6 420 -11
550 -104 787 -431 1299 -886 1385 l-35 7 35 -31z"/>
<path d="M12575 6726 c-223 -55 -371 -278 -335 -503 31 -192 176 -339 370
-374 293 -52 562 218 512 514 -44 257 -298 425 -547 363z m232 -108 c81 -30
171 -121 202 -203 19 -49 22 -74 19 -140 -8 -136 -74 -237 -196 -297 -59 -30
-76 -33 -152 -33 -76 0 -92 3 -152 33 -188 92 -254 325 -143 502 24 39 90 101
127 121 81 44 205 51 295 17z"/>
<path d="M6311 3574 c-1 -11 53 -173 94 -279 49 -129 196 -407 255 -482 10
-12 21 -19 25 -15 5 4 5 2 1 -5 -6 -12 28 -78 40 -78 10 0 14 38 6 45 -4 3
-28 37 -53 75 -25 39 -66 102 -91 140 -114 175 -188 333 -188 400 0 28 -88
224 -89 199z"/>
<path d="M23545 3202 c-36 -67 -87 -156 -130 -222 -23 -36 -56 -87 -74 -115
-17 -27 -29 -55 -26 -63 2 -7 0 -10 -5 -7 -13 8 -51 -36 -45 -52 2 -7 -1 -12
-8 -10 -7 1 -11 -7 -10 -21 2 -13 -1 -21 -7 -17 -6 4 -7 -1 -3 -11 5 -13 3
-16 -9 -11 -9 3 -19 0 -21 -8 -3 -7 0 -12 8 -11 23 3 56 39 50 53 -2 8 -1 12
4 8 5 -3 24 21 42 52 18 32 35 60 39 63 27 22 228 395 218 405 -2 2 -13 -12
-23 -33z"/>
<path d="M8016 2799 c-20 -33 -34 -65 -30 -70 3 -5 1 -9 -4 -9 -14 0 -71 -132
-162 -375 -45 -121 -85 -224 -88 -229 -3 -5 0 -6 5 -3 18 11 87 135 167 297
42 85 85 172 96 192 11 21 17 44 13 55 -3 10 -3 15 2 11 13 -12 35 25 24 39
-7 7 -6 14 1 18 6 4 8 20 4 41 -5 29 -4 33 10 28 12 -5 15 -2 10 10 -3 9 -10
14 -14 11 -5 -3 -6 4 -3 16 4 16 8 17 14 7 6 -9 9 -9 9 -1 0 32 -21 17 -54
-38z"/>
<path d="M21937 2853 c-4 -3 -7 -11 -7 -17 0 -6 5 -4 11 4 8 11 9 8 5 -15 -5
-22 -4 -26 4 -15 10 16 13 9 11 -27 -1 -11 3 -24 8 -28 6 -3 11 -11 11 -16 0
-6 -11 3 -25 18 l-25 28 15 -31 c13 -26 22 -59 24 -87 1 -5 6 -5 13 -1 8 5 9
2 5 -10 -4 -10 2 -33 13 -54 11 -20 54 -107 96 -192 75 -153 149 -286 164
-295 16 -10 -169 472 -224 585 -31 64 -86 160 -90 160 -2 0 -6 -3 -9 -7z"/>
<path d="M6489 2646 c-3 -3 -62 -6 -132 -7 -70 -1 -127 -6 -127 -10 0 -12 114
-45 181 -53 68 -9 175 8 200 30 10 9 22 14 26 11 5 -3 22 3 39 14 l29 19 -106
0 c-58 0 -108 -2 -110 -4z"/>
<path d="M23328 2631 c18 -12 36 -21 41 -21 4 0 23 -8 42 -17 51 -25 195 -23
287 5 66 21 96 42 55 40 -10 -1 -117 2 -238 6 l-220 7 33 -20z"/>
<path d="M9045 2119 c-149 -109 -431 -264 -688 -380 l-149 -67 59 -22 c407
-152 818 -98 1096 144 48 42 86 82 84 89 -1 7 5 10 13 9 8 -2 12 0 7 4 -4 4
-18 9 -30 11 -17 2 -19 1 -7 -7 13 -8 13 -10 -1 -10 -9 0 -22 -7 -29 -15 -9
-10 -9 -15 -1 -15 6 0 11 5 11 10 0 6 7 10 17 10 15 0 14 -2 -2 -20 -20 -22
-36 -22 -48 0 -5 10 -6 8 -3 -7 4 -21 1 -22 -26 -18 -20 4 -27 2 -23 -5 4 -6
14 -9 22 -6 8 3 11 1 8 -4 -4 -6 2 -7 12 -4 14 5 15 4 4 -4 -8 -6 -20 -8 -28
-5 -9 3 -11 0 -7 -10 3 -8 1 -18 -5 -22 -6 -3 -11 -1 -11 6 0 7 -8 5 -21 -7
-15 -14 -20 -15 -17 -4 2 12 -15 17 -79 24 -71 7 -83 11 -83 27 0 17 -9 19
-86 19 -55 0 -83 4 -79 10 3 6 -1 17 -10 26 -15 15 -14 19 9 48 71 87 176 246
164 246 -2 0 -35 -23 -73 -51z"/>
<path d="M20905 2124 c30 -55 83 -130 131 -187 18 -22 30 -45 27 -53 -4 -10 0
-12 11 -8 12 5 15 2 10 -10 -4 -12 -2 -15 9 -10 8 3 18 1 21 -4 4 -6 -5 -9
-20 -7 -26 3 -44 19 -44 43 0 8 -15 11 -47 10 l-48 -1 43 -4 c37 -4 42 -7 42
-29 0 -23 -2 -24 -80 -24 -72 0 -80 -2 -80 -19 0 -16 -11 -20 -77 -26 -43 -4
-83 -11 -89 -16 -7 -6 -16 -4 -24 6 -11 13 -15 13 -23 3 -6 -9 -7 -8 -3 5 3
11 1 17 -7 16 -6 -1 -19 -1 -27 0 -13 1 -13 3 -1 10 8 5 20 7 27 4 6 -2 15 1
19 7 4 6 1 11 -6 9 -28 -3 -39 2 -40 19 0 14 -2 14 -7 2 -10 -22 -27 -22 -47
0 -16 18 -17 20 -2 20 10 0 17 -4 17 -10 0 -5 5 -10 11 -10 8 0 8 5 -1 15 -7
8 -20 15 -29 15 -14 0 -14 2 -1 11 12 8 12 10 1 7 -35 -10 -16 -41 67 -114
195 -170 469 -253 749 -225 110 11 242 42 346 81 l59 22 -149 67 c-250 113
-543 274 -679 374 -87 63 -88 64 -59 11z"/>
</g>
</svg>
